<mxfile>
  <diagram name="High Level Design for Deliverro">
    <mxGraphModel>
      <root>
        <mxCell id="0" />
        <mxCell id="1" parent="0" />
        <!-- User Interface -->
        <mxCell id="2" value="User Interface (User, Rider, Restro)" style="ellipse;whiteSpace=wrap;html=1;fillColor=#D5E8D4;" vertex="1" parent="1">
          <mxGeometry x="100" y="50" width="200" height="80" as="geometry" />
        </mxCell>
        <!-- CDN -->
        <mxCell id="3" value="CDN" style="ellipse;whiteSpace=wrap;html=1;fillColor=#FFD966;" vertex="1" parent="1">
          <mxGeometry x="100" y="150" width="120" height="60" as="geometry" />
        </mxCell>
        <mxCell id="4" edge="1" source="2" target="3" parent="1">
          <mxGeometry relative="1" as="geometry" />
        </mxCell>
        <!-- Authentication -->
        <mxCell id="5" value="Authentication Service" style="rectangle;whiteSpace=wrap;html=1;fillColor=#FFF2CC;" vertex="1" parent="1">
          <mxGeometry x="250" y="150" width="150" height="60" as="geometry" />
        </mxCell>
        <mxCell id="6" edge="1" source="2" target="5" parent="1">
          <mxGeometry relative="1" as="geometry" />
        </mxCell>
        <!-- Load Balancer -->
        <mxCell id="7" value="Load Balancer" style="ellipse;whiteSpace=wrap;html=1;fillColor=#FFD966;" vertex="1" parent="1">
          <mxGeometry x="100" y="250" width="150" height="80" as="geometry" />
        </mxCell>
        <mxCell id="8" edge="1" source="3" target="7" parent="1">
          <mxGeometry relative="1" as="geometry" />
        </mxCell>
        <!-- AWS API Gateway -->
        <mxCell id="9" value="AWS API Gateway" style="rectangle;whiteSpace=wrap;html=1;fillColor=#DAE8FC;" vertex="1" parent="1">
          <mxGeometry x="300" y="250" width="150" height="80" as="geometry" />
        </mxCell>
        <mxCell id="10" edge="1" source="7" target="9" parent="1">
          <mxGeometry relative="1" as="geometry" />
        </mxCell>
        <!-- Application Servers -->
        <mxCell id="11" value="Application Servers (Microservices)" style="rectangle;whiteSpace=wrap;html=1;fillColor=#FFF2CC;" vertex="1" parent="1">
          <mxGeometry x="100" y="350" width="200" height="100" as="geometry" />
        </mxCell>
        <mxCell id="12" edge="1" source="9" target="11" parent="1">
          <mxGeometry relative="1" as="geometry" />
        </mxCell>
        <!-- Redis Cache -->
        <mxCell id="13" value="Redis Cache" style="rectangle;whiteSpace=wrap;html=1;fillColor=#F8CECC;" vertex="1" parent="1">
          <mxGeometry x="100" y="500" width="150" height="80" as="geometry" />
        </mxCell>
        <mxCell id="14" edge="1" source="11" target="13" parent="1">
          <mxGeometry relative="1" as="geometry" />
        </mxCell>
        <!-- Cassandra Database -->
        <mxCell id="15" value="Cassandra (Primary Database)" style="rectangle;whiteSpace=wrap;html=1;fillColor=#DAE8FC;" vertex="1" parent="1">
          <mxGeometry x="300" y="500" width="200" height="80" as="geometry" />
        </mxCell>
        <mxCell id="16" edge="1" source="11" target="15" parent="1">
          <mxGeometry relative="1" as="geometry" />
        </mxCell>
        <!-- Monitoring & Logging -->
        <mxCell id="17" value="Monitoring & Logging Service" style="ellipse;whiteSpace=wrap;html=1;fillColor=#E1D5E7;" vertex="1" parent="1">
          <mxGeometry x="550" y="250" width="200" height="80" as="geometry" />
        </mxCell>
        <mxCell id="18" edge="1" source="9" target="17" parent="1">
          <mxGeometry relative="1" as="geometry" />
        </mxCell>
        <!-- Deployment & Replica Management -->
        <mxCell id="19" value="Deployment & Replica Management" style="ellipse;whiteSpace=wrap;html=1;fillColor=#F8CECC;" vertex="1" parent="1">
          <mxGeometry x="550" y="350" width="200" height="80" as="geometry" />
        </mxCell>
        <mxCell id="20" edge="1" source="11" target="19" parent="1">
          <mxGeometry relative="1" as="geometry" />
        </mxCell>
        <!-- Fault Tolerance & Security -->
        <mxCell id="21" value="Fault Tolerance & Security Services" style="ellipse;whiteSpace=wrap;html=1;fillColor=#D5E8D4;" vertex="1" parent="1">
          <mxGeometry x="550" y="500" width="200" height="80" as="geometry" />
        </mxCell>
        <mxCell id="22" edge="1" source="19" target="21" parent="1">
          <mxGeometry relative="1" as="geometry" />
        </mxCell>
      </root>
    </mxGraphModel>
  </diagram>
</mxfile>